<svg version="1.1" id="Layer_1" xmlns="http://www.w3.org/2000/svg" xmlns:xlink="http://www.w3.org/1999/xlink" x="0px" y="0px"
	 width="100%" viewBox="0 0 681 366" enable-background="new 0 0 681 366" xml:space="preserve">
<path fill="#010101" opacity="1.000000" stroke="none" 
	d="
M442.000000,367.000000 
	C294.701691,367.000000 147.903397,367.000000 1.052551,367.000000 
	C1.052551,245.064163 1.052551,123.128296 1.052551,1.096214 
	C227.881653,1.096214 454.763367,1.096214 681.822510,1.096214 
	C681.822510,122.999794 681.822510,244.999878 681.822510,367.000000 
	C602.128235,367.000000 522.314148,367.000000 442.000000,367.000000 
M658.808289,151.299973 
	C657.937439,154.119919 657.308838,157.043182 656.156799,159.743164 
	C648.149048,178.511322 632.650574,188.667557 614.419922,195.487839 
	C612.174133,196.328003 608.939758,197.001648 607.083557,196.017349 
	C591.567505,187.789612 576.398254,189.270447 561.540588,197.280884 
	C555.196899,200.701096 549.548950,205.399307 543.251831,208.921341 
	C533.263367,214.508011 522.490845,217.600708 511.046326,219.197266 
	C495.808990,221.322952 480.811798,223.288406 466.106934,216.797028 
	C465.736481,216.633484 464.110229,217.906494 464.134003,218.464127 
	C464.726471,232.355591 462.264374,245.700516 457.368011,258.661987 
	C456.991364,257.806396 456.950500,256.990051 456.997528,256.178802 
	C457.635773,245.167755 458.678223,234.158478 458.708588,223.146255 
	C458.718445,219.575348 459.673096,214.366638 454.497009,212.520676 
	C444.343597,208.899643 434.189972,205.248245 423.896667,202.060730 
	C416.276184,199.700912 408.804565,200.192902 402.328766,205.674683 
	C401.731567,206.180191 401.069153,206.881439 400.377533,206.958588 
	C395.743622,207.475418 391.036255,207.523911 386.460693,208.334137 
	C376.882721,210.030228 367.728882,218.275345 368.946838,228.626740 
	C369.147766,230.334381 368.987793,232.308273 368.303314,233.852783 
	C366.505615,237.909241 364.326569,241.796707 362.059875,246.218842 
	C370.777435,249.611954 372.898499,240.357162 377.066803,237.485001 
	C378.047577,243.761673 379.374359,250.047684 379.904175,256.400177 
	C380.272064,260.811188 380.115143,265.443909 379.136597,269.736847 
	C378.243652,273.654175 375.833282,277.207611 374.261505,280.991943 
	C370.777740,289.379669 371.130615,290.299011 378.973907,294.947845 
	C379.814301,295.445953 380.659088,295.959961 381.415314,296.573273 
	C389.992340,303.529327 399.418091,305.530792 409.979248,301.764038 
	C422.077209,297.449188 430.882751,288.699280 440.193817,279.554749 
	C444.765839,281.236694 449.637054,282.893219 454.361450,284.895996 
	C455.177917,285.242126 456.110657,287.636627 455.742432,288.105591 
	C450.364868,294.954498 445.147491,301.827911 435.857483,304.214050 
	C432.105896,305.177704 428.704803,308.132141 425.611389,310.735657 
	C424.303497,311.836365 423.126221,315.041290 423.789246,316.099243 
	C424.914429,317.894653 427.413910,319.450073 429.569824,319.852570 
	C434.490326,320.771240 439.552521,320.931091 445.748016,321.510590 
	C440.927887,323.044189 437.204346,324.651093 433.316162,325.380157 
	C424.579041,327.018463 415.631561,323.907623 406.748474,327.026764 
	C400.801941,329.114746 395.072845,331.064087 392.075287,336.795044 
	C391.218109,338.433929 392.070740,342.208679 393.498199,343.489166 
	C395.313690,345.117645 398.498230,345.791626 401.115936,345.851379 
	C410.540955,346.066437 419.997223,346.224915 429.400696,345.687561 
	C438.136169,345.188385 446.891754,344.182159 455.506989,342.656616 
	C466.008514,340.797150 476.519409,338.665222 486.744263,335.684021 
	C493.468567,333.723480 498.667297,329.591339 499.067322,321.180695 
	C499.277771,316.755859 501.751709,312.476746 502.847443,308.043762 
	C503.703491,304.580505 505.782318,304.083008 508.968567,303.826508 
	C521.078674,302.851685 533.188782,301.725525 545.234558,300.160858 
	C552.440125,299.224884 559.526184,297.369171 566.647400,295.930573 
	C568.113770,301.970123 566.054565,305.441345 560.185913,307.460205 
	C555.235046,309.163391 550.017273,310.465088 546.956360,315.354614 
	C544.568054,319.169739 546.007385,323.768036 550.386108,324.601288 
	C554.741699,325.430206 559.351074,325.916443 563.722900,325.426331 
	C569.595886,324.768005 576.267578,325.674255 580.909912,321.180878 
	C583.699524,318.480835 584.634460,313.914154 587.322327,311.048859 
	C592.207947,305.840851 594.462769,299.960358 594.387634,292.977051 
	C594.380249,292.284668 594.675842,291.589020 594.830811,290.894897 
	C596.410095,293.961823 596.938660,297.070648 597.612061,300.147766 
	C599.670593,309.555328 599.348633,318.549591 593.543457,326.781158 
	C592.227234,328.647552 591.106445,330.744476 590.350098,332.895111 
	C588.315735,338.679321 591.735107,343.305756 597.927490,343.557281 
	C604.511841,343.824707 611.091125,344.215149 617.674011,344.522003 
	C623.214111,344.780212 629.338135,340.499084 628.612244,335.749298 
	C627.230530,326.708771 627.053040,317.953278 629.954468,309.223206 
	C630.148560,308.639343 629.952759,307.894684 629.835754,307.243256 
	C628.045227,297.275787 626.166931,287.323059 624.510437,277.333527 
	C624.263733,275.845764 624.639832,273.952393 625.407715,272.646362 
	C631.678528,261.980743 633.636169,250.387207 631.747681,238.421265 
	C630.466553,230.303833 627.639160,222.430405 625.425476,214.156891 
	C625.632996,214.038803 626.421875,213.416168 627.318787,213.105667 
	C640.134216,208.668961 649.574768,200.231522 657.079834,189.076233 
	C663.875244,178.975555 666.308289,167.664841 667.604553,155.951416 
	C668.113647,151.350952 667.702393,146.800217 662.049316,143.815140 
	C661.028015,146.262466 660.118835,148.441147 658.808289,151.299973 
M642.171448,63.349758 
	C638.916992,58.652725 636.178284,53.473648 632.317627,49.343254 
	C616.750854,32.688835 596.434570,26.432936 574.529297,25.393503 
	C556.263245,24.526752 537.921326,25.223505 519.613281,25.290194 
	C511.636444,25.319248 511.625458,25.406223 512.096680,32.923897 
	C512.148682,33.753613 512.107300,34.589252 512.107361,35.422146 
	C512.113098,80.058434 512.118652,124.694717 512.124207,169.331009 
	C512.124512,171.958649 512.124207,174.586288 512.124207,177.694611 
	C519.970276,178.145325 527.438904,178.798080 534.917725,178.950134 
	C545.407898,179.163406 555.906250,179.079300 566.399902,178.985703 
	C579.877319,178.865479 592.994995,177.096054 605.826355,172.398666 
	C630.697571,163.293640 645.113037,145.493240 649.834045,119.999199 
	C653.398071,100.752762 652.046570,81.730621 642.171448,63.349758 
M425.417847,23.485493 
	C411.869995,22.761784 398.782104,25.131018 386.764496,31.231560 
	C360.585663,44.520824 345.125092,65.743454 341.282776,95.123848 
	C339.428131,109.305916 342.126923,122.710274 348.420837,135.335495 
	C360.979218,160.526642 381.341461,175.583252 409.063904,180.252762 
	C425.051392,182.945663 440.851959,181.488403 455.722717,174.737305 
	C475.875885,165.588043 490.750031,151.411194 499.194122,130.285431 
	C506.495941,112.017426 506.226685,93.911324 500.093933,76.017593 
	C495.885590,63.738678 488.430939,52.872242 478.340179,44.213764 
	C463.383118,31.379753 446.238586,24.020676 425.417847,23.485493 
M335.003021,100.632462 
	C332.973206,91.622849 331.892639,82.264702 328.736328,73.668716 
	C319.120819,47.481613 298.762268,32.396923 272.900635,25.452744 
	C257.412628,21.294020 241.163727,22.199169 225.505219,27.824934 
	C207.435349,34.317051 193.085541,45.177555 183.211990,61.700909 
	C173.883621,77.311874 169.064651,93.632004 172.053802,112.339943 
	C173.732666,122.847267 176.674484,132.332886 181.997833,141.362106 
	C195.667999,164.548813 216.267883,177.679398 242.526215,180.744965 
	C266.593262,183.554718 288.542908,177.646774 307.453888,161.135712 
	C325.730682,145.178406 334.396210,125.387917 335.003021,100.632462 
M332.816254,286.982544 
	C332.763275,285.997223 332.433594,284.929504 332.698700,284.038879 
	C336.834015,270.146942 334.975616,256.450348 330.674652,243.099640 
	C326.804779,231.087128 319.966339,220.533386 310.911346,211.781311 
	C302.441895,203.595261 292.549988,197.166168 281.158966,193.763504 
	C273.547028,191.489746 265.712402,189.651825 257.846191,188.610352 
	C245.646057,186.995071 233.883591,190.125351 222.579788,194.300934 
	C211.465714,198.406403 201.188782,204.626160 193.509033,213.591660 
	C187.227936,220.924362 182.052933,229.470413 177.716446,238.143036 
	C170.509186,252.556946 169.126266,268.073883 172.785919,283.788025 
	C176.940826,301.628723 185.884308,316.589722 200.193237,328.349030 
	C214.668396,340.244904 231.382309,345.997620 249.794327,346.909119 
	C266.721375,347.747070 282.592194,343.433533 297.031525,334.647125 
	C306.724731,328.748779 315.322113,321.334534 320.973175,311.289642 
	C325.253876,303.680603 328.805328,295.661285 332.816254,286.982544 
M164.532333,96.753670 
	C165.584457,93.276054 163.655029,92.950226 160.860138,92.961128 
	C142.036133,93.034615 123.211670,92.988548 104.387436,93.025970 
	C103.037971,93.028648 101.689201,93.386803 100.832230,93.509315 
	C100.832230,104.253433 100.832230,114.224754 100.832230,124.671249 
	C112.251526,124.671249 122.987053,124.671249 133.609222,124.671249 
	C133.609222,126.290352 133.500763,127.441612 133.625732,128.566956 
	C135.163788,142.417252 135.252777,142.707932 122.173347,146.303543 
	C103.277000,151.498291 82.561424,146.549011 70.503731,130.232391 
	C54.088287,108.018814 60.120350,73.582863 85.978806,60.855560 
	C103.636185,52.164749 121.348473,55.335800 138.751236,61.792725 
	C144.333527,63.863914 149.432755,67.237038 154.829727,70.054565 
	C155.201172,69.208351 155.697998,68.602158 155.699326,67.994881 
	C155.720734,58.217834 155.742508,48.439468 155.560760,38.665180 
	C155.541016,37.602795 154.504211,36.174404 153.532440,35.573109 
	C141.418762,28.077639 128.200073,24.163588 113.968491,23.438751 
	C101.413353,22.799299 89.328026,24.437279 77.477509,28.909767 
	C66.171463,33.176765 55.978054,39.491116 47.930714,47.998367 
	C35.917362,60.698292 27.905289,75.595459 26.717281,94.019798 
	C26.048527,104.391190 26.196493,114.342155 29.082518,124.144463 
	C34.514153,142.592834 45.392155,157.085892 61.852234,167.251389 
	C73.034622,174.157440 84.648567,179.784988 98.208519,179.785049 
	C107.237068,179.785095 116.602699,181.327042 125.215347,179.436218 
	C138.214066,176.582474 150.741898,171.553101 160.912613,162.092255 
	C163.426956,159.753418 164.691666,157.705185 164.654800,154.175430 
	C164.458267,135.353531 164.556259,116.528542 164.532333,96.753670 
M117.238678,346.993988 
	C132.591492,345.766571 146.971008,341.845184 158.879547,331.481079 
	C159.922089,330.573730 160.373428,328.525574 160.399017,326.995605 
	C160.484528,321.882996 160.068939,316.760742 160.190277,311.650360 
	C160.320587,306.161285 160.840668,300.681458 161.276672,293.850220 
	C157.022476,297.206024 154.123856,299.815277 150.915161,301.960785 
	C142.592957,307.525543 133.720001,311.273682 123.661880,313.362427 
	C104.543167,317.332825 89.015060,312.273926 76.241890,298.041779 
	C67.372795,288.159607 65.042419,276.226013 65.933502,263.264923 
	C66.631508,253.112320 70.419159,244.381760 77.002808,236.875168 
	C87.989471,224.348373 102.091377,220.568192 118.354103,221.875473 
	C130.891174,222.883255 141.703476,227.493179 151.663010,234.746140 
	C154.499054,236.811493 157.368637,238.830780 160.898636,241.354309 
	C160.898636,239.264191 160.894547,238.133575 160.899307,237.003006 
	C160.932877,229.018814 160.456055,220.988800 161.164917,213.064911 
	C161.733353,206.710617 158.868683,203.098175 154.019485,200.250061 
	C134.818832,188.972794 114.405449,185.307922 92.662949,190.898605 
	C78.809555,194.460785 66.638000,200.908142 55.725487,210.504974 
	C35.346352,228.427078 28.154341,251.219650 30.329880,277.162109 
	C31.582588,292.100159 37.613792,305.880463 47.563976,317.411285 
	C57.780022,329.250244 70.000267,338.700439 85.366524,342.492371 
	C95.426628,344.974884 105.957916,345.548004 117.238678,346.993988 
M333.637573,333.610138 
	C342.161804,350.145905 359.997284,350.625061 369.203583,339.147034 
	C374.174316,332.949768 376.502747,325.633759 373.756805,319.447815 
	C370.281738,311.619354 359.941345,304.289825 352.794586,305.055939 
	C341.217010,306.297028 328.291107,318.259430 333.637573,333.610138 
z"/>
<path fill="#FCFCFC" opacity="1.000000" stroke="none" 
	d="
M659.008972,150.959900 
	C660.118835,148.441147 661.028015,146.262466 662.049316,143.815140 
	C667.702393,146.800217 668.113647,151.350952 667.604553,155.951416 
	C666.308289,167.664841 663.875244,178.975555 657.079834,189.076233 
	C649.574768,200.231522 640.134216,208.668961 627.318787,213.105667 
	C626.421875,213.416168 625.632996,214.038803 625.425476,214.156891 
	C627.639160,222.430405 630.466553,230.303833 631.747681,238.421265 
	C633.636169,250.387207 631.678528,261.980743 625.407715,272.646362 
	C624.639832,273.952393 624.263733,275.845764 624.510437,277.333527 
	C626.166931,287.323059 628.045227,297.275787 629.835754,307.243256 
	C629.952759,307.894684 630.148560,308.639343 629.954468,309.223206 
	C627.053040,317.953278 627.230530,326.708771 628.612244,335.749298 
	C629.338135,340.499084 623.214111,344.780212 617.674011,344.522003 
	C611.091125,344.215149 604.511841,343.824707 597.927490,343.557281 
	C591.735107,343.305756 588.315735,338.679321 590.350098,332.895111 
	C591.106445,330.744476 592.227234,328.647552 593.543457,326.781158 
	C599.348633,318.549591 599.670593,309.555328 597.612061,300.147766 
	C596.938660,297.070648 596.410095,293.961823 594.830811,290.894897 
	C594.675842,291.589020 594.380249,292.284668 594.387634,292.977051 
	C594.462769,299.960358 592.207947,305.840851 587.322327,311.048859 
	C584.634460,313.914154 583.699524,318.480835 580.909912,321.180878 
	C576.267578,325.674255 569.595886,324.768005 563.722900,325.426331 
	C559.351074,325.916443 554.741699,325.430206 550.386108,324.601288 
	C546.007385,323.768036 544.568054,319.169739 546.956360,315.354614 
	C550.017273,310.465088 555.235046,309.163391 560.185913,307.460205 
	C566.054565,305.441345 568.113770,301.970123 566.647400,295.930573 
	C559.526184,297.369171 552.440125,299.224884 545.234558,300.160858 
	C533.188782,301.725525 521.078674,302.851685 508.968567,303.826508 
	C505.782318,304.083008 503.703491,304.580505 502.847443,308.043762 
	C501.751709,312.476746 499.277771,316.755859 499.067322,321.180695 
	C498.667297,329.591339 493.468567,333.723480 486.744263,335.684021 
	C476.519409,338.665222 466.008514,340.797150 455.506989,342.656616 
	C446.891754,344.182159 438.136169,345.188385 429.400696,345.687561 
	C419.997223,346.224915 410.540955,346.066437 401.115936,345.851379 
	C398.498230,345.791626 395.313690,345.117645 393.498199,343.489166 
	C392.070740,342.208679 391.218109,338.433929 392.075287,336.795044 
	C395.072845,331.064087 400.801941,329.114746 406.748474,327.026764 
	C415.631561,323.907623 424.579041,327.018463 433.316162,325.380157 
	C437.204346,324.651093 440.927887,323.044189 445.748016,321.510590 
	C439.552521,320.931091 434.490326,320.771240 429.569824,319.852570 
	C427.413910,319.450073 424.914429,317.894653 423.789246,316.099243 
	C423.126221,315.041290 424.303497,311.836365 425.611389,310.735657 
	C428.704803,308.132141 432.105896,305.177704 435.857483,304.214050 
	C445.147491,301.827911 450.364868,294.954498 455.742432,288.105591 
	C456.110657,287.636627 455.177917,285.242126 454.361450,284.895996 
	C449.637054,282.893219 444.765839,281.236694 440.193817,279.554749 
	C430.882751,288.699280 422.077209,297.449188 409.979248,301.764038 
	C399.418091,305.530792 389.992340,303.529327 381.415314,296.573273 
	C380.659088,295.959961 379.814301,295.445953 378.973907,294.947845 
	C371.130615,290.299011 370.777740,289.379669 374.261505,280.991943 
	C375.833282,277.207611 378.243652,273.654175 379.136597,269.736847 
	C380.115143,265.443909 380.272064,260.811188 379.904175,256.400177 
	C379.374359,250.047684 378.047577,243.761673 377.066803,237.485001 
	C372.898499,240.357162 370.777435,249.611954 362.059875,246.218842 
	C364.326569,241.796707 366.505615,237.909241 368.303314,233.852783 
	C368.987793,232.308273 369.147766,230.334381 368.946838,228.626740 
	C367.728882,218.275345 376.882721,210.030228 386.460693,208.334137 
	C391.036255,207.523911 395.743622,207.475418 400.377533,206.958588 
	C401.069153,206.881439 401.731567,206.180191 402.328766,205.674683 
	C408.804565,200.192902 416.276184,199.700912 423.896667,202.060730 
	C434.189972,205.248245 444.343597,208.899643 454.497009,212.520676 
	C459.673096,214.366638 458.718445,219.575348 458.708588,223.146255 
	C458.678223,234.158478 457.635773,245.167755 456.997528,256.178802 
	C456.950500,256.990051 456.991364,257.806396 457.368011,258.661987 
	C462.264374,245.700516 464.726471,232.355591 464.134003,218.464127 
	C464.110229,217.906494 465.736481,216.633484 466.106934,216.797028 
	C480.811798,223.288406 495.808990,221.322952 511.046326,219.197266 
	C522.490845,217.600708 533.263367,214.508011 543.251831,208.921341 
	C549.548950,205.399307 555.196899,200.701096 561.540588,197.280884 
	C576.398254,189.270447 591.567505,187.789612 607.083557,196.017349 
	C608.939758,197.001648 612.174133,196.328003 614.419922,195.487839 
	C632.650574,188.667557 648.149048,178.511322 656.156799,159.743164 
	C657.308838,157.043182 657.937439,154.119919 659.008972,150.959900 
M394.215942,252.909698 
	C393.804779,253.594452 392.974335,254.340363 393.063568,254.952148 
	C393.301147,256.581177 393.497070,258.614868 394.544128,259.605988 
	C395.442596,260.456482 398.430084,260.734680 398.847870,260.129578 
	C399.818665,258.723572 400.638947,256.147003 399.949615,254.947433 
	C399.189972,253.625610 396.673981,253.313141 394.215942,252.909698 
z"/>
<path fill="#FCFCFC" opacity="1.000000" stroke="none" 
	d="
M642.395081,63.652992 
	C652.046570,81.730621 653.398071,100.752762 649.834045,119.999199 
	C645.113037,145.493240 630.697571,163.293640 605.826355,172.398666 
	C592.994995,177.096054 579.877319,178.865479 566.399902,178.985703 
	C555.906250,179.079300 545.407898,179.163406 534.917725,178.950134 
	C527.438904,178.798080 519.970276,178.145325 512.124207,177.694611 
	C512.124207,174.586288 512.124512,171.958649 512.124207,169.331009 
	C512.118652,124.694717 512.113098,80.058434 512.107361,35.422146 
	C512.107300,34.589252 512.148682,33.753613 512.096680,32.923897 
	C511.625458,25.406223 511.636444,25.319248 519.613281,25.290194 
	C537.921326,25.223505 556.263245,24.526752 574.529297,25.393503 
	C596.434570,26.432936 616.750854,32.688835 632.317627,49.343254 
	C636.178284,53.473648 638.916992,58.652725 642.395081,63.652992 
M547.505127,137.903473 
	C547.505127,140.517197 547.505127,143.130920 547.505127,146.889771 
	C560.796692,145.961212 573.539429,146.029953 585.932129,143.981369 
	C604.714294,140.876572 613.772339,128.792786 615.000854,110.184555 
	C615.317200,105.393906 614.973022,100.562286 615.011353,95.750114 
	C615.102539,84.303200 611.642456,74.184937 602.177185,67.396744 
	C597.388489,63.962402 591.488831,61.812405 585.800781,59.987755 
	C581.859802,58.723530 577.428040,58.745094 573.205566,58.653320 
	C564.701050,58.468464 556.189697,58.598293 547.512329,58.598293 
	C547.512329,84.730637 547.512329,110.865036 547.505127,137.903473 
z"/>
<path fill="#FCFCFC" opacity="1.000000" stroke="none" 
	d="
M425.895996,23.484989 
	C446.238586,24.020676 463.383118,31.379753 478.340179,44.213764 
	C488.430939,52.872242 495.885590,63.738678 500.093933,76.017593 
	C506.226685,93.911324 506.495941,112.017426 499.194122,130.285431 
	C490.750031,151.411194 475.875885,165.588043 455.722717,174.737305 
	C440.851959,181.488403 425.051392,182.945663 409.063904,180.252762 
	C381.341461,175.583252 360.979218,160.526642 348.420837,135.335495 
	C342.126923,122.710274 339.428131,109.305916 341.282776,95.123848 
	C345.125092,65.743454 360.585663,44.520824 386.764496,31.231560 
	C398.782104,25.131018 411.869995,22.761784 425.895996,23.484989 
M451.181091,65.175804 
	C441.589630,58.010410 430.808960,55.173683 418.902252,55.969963 
	C407.251556,56.749119 397.032532,61.033752 389.402924,69.686165 
	C378.958069,81.531151 374.768524,95.166077 377.542786,111.453827 
	C381.967682,137.432083 407.648987,153.543564 432.279022,147.987610 
	C456.151184,142.602631 469.531921,123.485947 468.865936,100.296204 
	C468.467468,86.420586 462.387207,74.739632 451.181091,65.175804 
z"/>
<path fill="#FCFCFC" opacity="1.000000" stroke="none" 
	d="
M335.002991,101.099083 
	C334.396210,125.387917 325.730682,145.178406 307.453888,161.135712 
	C288.542908,177.646774 266.593262,183.554718 242.526215,180.744965 
	C216.267883,177.679398 195.667999,164.548813 181.997833,141.362106 
	C176.674484,132.332886 173.732666,122.847267 172.053802,112.339943 
	C169.064651,93.632004 173.883621,77.311874 183.211990,61.700909 
	C193.085541,45.177555 207.435349,34.317051 225.505219,27.824934 
	C241.163727,22.199169 257.412628,21.294020 272.900635,25.452744 
	C298.762268,32.396923 319.120819,47.481613 328.736328,73.668716 
	C331.892639,82.264702 332.973206,91.622849 335.002991,101.099083 
M219.928528,135.583649 
	C224.783432,138.820816 229.300446,142.811249 234.550949,145.166504 
	C259.064209,156.162659 289.533783,142.764099 296.783447,116.870331 
	C301.049805,101.632065 299.197815,87.514992 290.217682,74.829094 
	C278.852203,58.773521 262.877655,53.839302 243.634857,56.884724 
	C222.073227,60.297134 207.986801,79.758354 206.946564,99.380302 
	C206.225922,112.973244 210.057999,124.980263 219.928528,135.583649 
z"/>
<path fill="#FCFCFC" opacity="1.000000" stroke="none" 
	d="
M332.748779,287.403564 
	C328.805328,295.661285 325.253876,303.680603 320.973175,311.289642 
	C315.322113,321.334534 306.724731,328.748779 297.031525,334.647125 
	C282.592194,343.433533 266.721375,347.747070 249.794327,346.909119 
	C231.382309,345.997620 214.668396,340.244904 200.193237,328.349030 
	C185.884308,316.589722 176.940826,301.628723 172.785919,283.788025 
	C169.126266,268.073883 170.509186,252.556946 177.716446,238.143036 
	C182.052933,229.470413 187.227936,220.924362 193.509033,213.591660 
	C201.188782,204.626160 211.465714,198.406403 222.579788,194.300934 
	C233.883591,190.125351 245.646057,186.995071 257.846191,188.610352 
	C265.712402,189.651825 273.547028,191.489746 281.158966,193.763504 
	C292.549988,197.166168 302.441895,203.595261 310.911346,211.781311 
	C319.966339,220.533386 326.804779,231.087128 330.674652,243.099640 
	C334.975616,256.450348 336.834015,270.146942 332.698700,284.038879 
	C332.433594,284.929504 332.763275,285.997223 332.748779,287.403564 
M238.251266,312.239990 
	C250.759766,317.267914 262.835480,314.973938 274.336853,309.332642 
	C286.582153,303.326416 293.886841,293.542969 297.270752,279.915405 
	C300.973267,265.004822 298.672852,251.427032 289.895599,239.696335 
	C277.373993,222.961395 258.703827,217.207962 238.281174,223.672562 
	C220.703186,229.236725 211.381058,241.814819 207.687149,259.931152 
	C203.066971,282.590118 218.234802,307.080963 238.251266,312.239990 
z"/>
<path fill="#FBFBFB" opacity="1.000000" stroke="none" 
	d="
M164.542343,97.229149 
	C164.556259,116.528542 164.458267,135.353531 164.654800,154.175430 
	C164.691666,157.705185 163.426956,159.753418 160.912613,162.092255 
	C150.741898,171.553101 138.214066,176.582474 125.215347,179.436218 
	C116.602699,181.327042 107.237068,179.785095 98.208519,179.785049 
	C84.648567,179.784988 73.034622,174.157440 61.852234,167.251389 
	C45.392155,157.085892 34.514153,142.592834 29.082518,124.144463 
	C26.196493,114.342155 26.048527,104.391190 26.717281,94.019798 
	C27.905289,75.595459 35.917362,60.698292 47.930714,47.998367 
	C55.978054,39.491116 66.171463,33.176765 77.477509,28.909767 
	C89.328026,24.437279 101.413353,22.799299 113.968491,23.438751 
	C128.200073,24.163588 141.418762,28.077639 153.532440,35.573109 
	C154.504211,36.174404 155.541016,37.602795 155.560760,38.665180 
	C155.742508,48.439468 155.720734,58.217834 155.699326,67.994881 
	C155.697998,68.602158 155.201172,69.208351 154.829727,70.054565 
	C149.432755,67.237038 144.333527,63.863914 138.751236,61.792725 
	C121.348473,55.335800 103.636185,52.164749 85.978806,60.855560 
	C60.120350,73.582863 54.088287,108.018814 70.503731,130.232391 
	C82.561424,146.549011 103.277000,151.498291 122.173347,146.303543 
	C135.252777,142.707932 135.163788,142.417252 133.625732,128.566956 
	C133.500763,127.441612 133.609222,126.290352 133.609222,124.671249 
	C122.987053,124.671249 112.251526,124.671249 100.832230,124.671249 
	C100.832230,114.224754 100.832230,104.253433 100.832230,93.509315 
	C101.689201,93.386803 103.037971,93.028648 104.387436,93.025970 
	C123.211670,92.988548 142.036133,93.034615 160.860138,92.961128 
	C163.655029,92.950226 165.584457,93.276054 164.542343,97.229149 
z"/>
<path fill="#FCFCFC" opacity="1.000000" stroke="none" 
	d="
M116.758423,346.985168 
	C105.957916,345.548004 95.426628,344.974884 85.366524,342.492371 
	C70.000267,338.700439 57.780022,329.250244 47.563976,317.411285 
	C37.613792,305.880463 31.582588,292.100159 30.329880,277.162109 
	C28.154341,251.219650 35.346352,228.427078 55.725487,210.504974 
	C66.638000,200.908142 78.809555,194.460785 92.662949,190.898605 
	C114.405449,185.307922 134.818832,188.972794 154.019485,200.250061 
	C158.868683,203.098175 161.733353,206.710617 161.164917,213.064911 
	C160.456055,220.988800 160.932877,229.018814 160.899307,237.003006 
	C160.894547,238.133575 160.898636,239.264191 160.898636,241.354309 
	C157.368637,238.830780 154.499054,236.811493 151.663010,234.746140 
	C141.703476,227.493179 130.891174,222.883255 118.354103,221.875473 
	C102.091377,220.568192 87.989471,224.348373 77.002808,236.875168 
	C70.419159,244.381760 66.631508,253.112320 65.933502,263.264923 
	C65.042419,276.226013 67.372795,288.159607 76.241890,298.041779 
	C89.015060,312.273926 104.543167,317.332825 123.661880,313.362427 
	C133.720001,311.273682 142.592957,307.525543 150.915161,301.960785 
	C154.123856,299.815277 157.022476,297.206024 161.276672,293.850220 
	C160.840668,300.681458 160.320587,306.161285 160.190277,311.650360 
	C160.068939,316.760742 160.484528,321.882996 160.399017,326.995605 
	C160.373428,328.525574 159.922089,330.573730 158.879547,331.481079 
	C146.971008,341.845184 132.591492,345.766571 116.758423,346.985168 
z"/>
<path fill="#FBFBFB" opacity="1.000000" stroke="none" 
	d="
M333.485687,333.250244 
	C328.291107,318.259430 341.217010,306.297028 352.794586,305.055939 
	C359.941345,304.289825 370.281738,311.619354 373.756805,319.447815 
	C376.502747,325.633759 374.174316,332.949768 369.203583,339.147034 
	C359.997284,350.625061 342.161804,350.145905 333.485687,333.250244 
z"/>
<path fill="#0F0F0F" opacity="1.000000" stroke="none" 
	d="
M394.569519,252.735352 
	C396.673981,253.313141 399.189972,253.625610 399.949615,254.947433 
	C400.638947,256.147003 399.818665,258.723572 398.847870,260.129578 
	C398.430084,260.734680 395.442596,260.456482 394.544128,259.605988 
	C393.497070,258.614868 393.301147,256.581177 393.063568,254.952148 
	C392.974335,254.340363 393.804779,253.594452 394.569519,252.735352 
z"/>
<path fill="#010101" opacity="1.000000" stroke="none" 
	d="
M547.508728,137.451447 
	C547.512329,110.865036 547.512329,84.730637 547.512329,58.598293 
	C556.189697,58.598293 564.701050,58.468464 573.205566,58.653320 
	C577.428040,58.745094 581.859802,58.723530 585.800781,59.987755 
	C591.488831,61.812405 597.388489,63.962402 602.177185,67.396744 
	C611.642456,74.184937 615.102539,84.303200 615.011353,95.750114 
	C614.973022,100.562286 615.317200,105.393906 615.000854,110.184555 
	C613.772339,128.792786 604.714294,140.876572 585.932129,143.981369 
	C573.539429,146.029953 560.796692,145.961212 547.505127,146.889771 
	C547.505127,143.130920 547.505127,140.517197 547.508728,137.451447 
z"/>
<path fill="#000000" opacity="1.000000" stroke="none" 
	d="
M451.483765,65.378151 
	C462.387207,74.739632 468.467468,86.420586 468.865936,100.296204 
	C469.531921,123.485947 456.151184,142.602631 432.279022,147.987610 
	C407.648987,153.543564 381.967682,137.432083 377.542786,111.453827 
	C374.768524,95.166077 378.958069,81.531151 389.402924,69.686165 
	C397.032532,61.033752 407.251556,56.749119 418.902252,55.969963 
	C430.808960,55.173683 441.589630,58.010410 451.483765,65.378151 
z"/>
<path fill="#000000" opacity="1.000000" stroke="none" 
	d="
M219.678070,135.314697 
	C210.057999,124.980263 206.225922,112.973244 206.946564,99.380302 
	C207.986801,79.758354 222.073227,60.297134 243.634857,56.884724 
	C262.877655,53.839302 278.852203,58.773521 290.217682,74.829094 
	C299.197815,87.514992 301.049805,101.632065 296.783447,116.870331 
	C289.533783,142.764099 259.064209,156.162659 234.550949,145.166504 
	C229.300446,142.811249 224.783432,138.820816 219.678070,135.314697 
z"/>
<path fill="#010101" opacity="1.000000" stroke="none" 
	d="
M237.866852,312.127197 
	C218.234802,307.080963 203.066971,282.590118 207.687149,259.931152 
	C211.381058,241.814819 220.703186,229.236725 238.281174,223.672562 
	C258.703827,217.207962 277.373993,222.961395 289.895599,239.696335 
	C298.672852,251.427032 300.973267,265.004822 297.270752,279.915405 
	C293.886841,293.542969 286.582153,303.326416 274.336853,309.332642 
	C262.835480,314.973938 250.759766,317.267914 237.866852,312.127197 
z"/>
</svg>